<svg xmlns="http://www.w3.org/2000/svg" version="1.1" xmlns:xlink="http://www.w3.org/1999/xlink" xmlns:svgjs="http://svgjs.dev/svgjs" width="100%" height="100%" viewBox="0 0 1000 600"><rect width="1000" height="600" x="0" y="0" fill="#cc313d"/><g><rect width="333.3333333333333" height="333.3333333333333" rx="13.333333333333334" ry="13.333333333333334" y="268.7307005931784" fill="#f7c5cc" transform="matrix(0.5070818971927767,0,0,0.5070818971927767,0,79.21786026668076)" x="246.50843811035153"/><path d="M379.2126061323921 510.3973649127535L379.2126061323921 510.3973649127535Q366.50031448144097 510.3973649127535 358.0506761817016 504.94923991948866Q349.6010378819622 499.5011149262239 345.2374933271714 489.8660049844315Q340.8991715732754 480.25611784353396 340.16771034732784 467.5438261925828L340.16771034732784 467.5438261925828L358.3281269915438 462.62538001810765Q358.85780581033345 470.44444829547837 360.774738678334 477.7086149531648Q362.6916715463346 484.97278161085114 367.0299933002306 489.5885541745894Q371.39353785502135 494.2295495392223 379.2126061323921 494.2295495392223L379.2126061323921 494.2295495392223Q387.2082340160261 494.2295495392223 391.2943277609747 489.79033658174734Q395.38042150592327 485.3259008233776 395.38042150592327 476.97715372721717L395.38042150592327 476.97715372721717Q395.38042150592327 466.9889245728984 390.8403173448693 460.91022955726504Q386.3002131838153 454.83153454163164 379.3891657386553 448.65194832241923L379.3891657386553 448.65194832241923L354.69604366270056 426.8594483493601Q347.4318770050142 420.50330252388454 343.9763532824342 412.961685056356Q340.52082955985423 405.4200675888274 340.52082955985423 394.3472579960346L340.52082955985423 394.3472579960346Q340.52082955985423 378.1794426225035 349.77759748822547 369.2757939066587Q359.05958821749135 360.3973679917087 375.02562118386453 360.3973679917087L375.02562118386453 360.3973679917087Q383.7527102934461 360.3973679917087 390.3863069287639 362.66742007223564Q396.9946807631869 364.93747215276267 401.45911652155667 369.65413592007985Q405.8983294790317 374.37079968739704 408.54672357297983 381.5340751415045Q411.16989486603325 388.72257339650656 412.07791569824406 398.3324605374042L412.07791569824406 398.3324605374042L394.6489602799757 403.07434710561614Q394.0940586602913 395.8101804479298 392.45457660213293 389.7062626314016Q390.8403173448693 383.6275676157682 386.7542235999207 379.9198158842408Q382.6681298549721 376.18684135181866 375.02562118386453 376.18684135181866L375.02562118386453 376.18684135181866Q367.4083353136518 376.18684135181866 363.14568196243994 380.27293509676724Q358.85780581033345 384.3590288417158 358.85780581033345 392.3546567253498L358.85780581033345 392.3546567253498Q358.85780581033345 399.0639217633518 361.1278578908604 403.4274663181426Q363.3979099713874 407.7910108729333 368.4929157521257 412.3311150339874L368.4929157521257 412.3311150339874L393.36259743434374 434.12361500704645Q401.7365673313988 441.38778166473287 408.0927131568744 451.4516792217359Q414.44885898235003 461.54079957963364 414.44885898235003 475.3376716690588L414.44885898235003 475.3376716690588Q414.44885898235003 486.2339216555884 409.90875482129604 494.12865833564337Q405.36865066024205 502.0486178165931 397.4486911792923 506.2103799642259Q389.5539544992373 510.3973649127535 379.2126061323921 510.3973649127535ZM457.4789573087839 510.22080530649026L457.4789573087839 510.22080530649026Q444.59010605156953 510.22080530649026 437.9565094162518 505.02490832217296Q431.322912780934 499.8542341387503 429.052860700407 490.42090660411594Q426.78280861988003 480.9623562685868 426.78280861988003 468.45184702479355L426.78280861988003 468.45184702479355L426.78280861988003 444.2884037676285Q426.78280861988003 431.0212104969929 429.153751903986 421.6887741659375Q431.4994723871972 412.3311150339874 438.133069022515 407.337000456828Q444.7666656578328 402.3428858796686 457.4789573087839 402.3428858796686L457.4789573087839 402.3428858796686Q468.9301089149979 402.3428858796686 475.1853635368945 406.050637611196Q481.4406181587911 409.78361214361814 483.811561442897 417.1486700048835Q486.18250472700305 424.4885050652542 486.18250472700305 435.3847550517837L486.18250472700305 435.3847550517837L486.18250472700305 441.56434127099607L468.55176690157674 441.56434127099607L468.55176690157674 435.2081954455205Q468.55176690157674 428.29714800036055 467.64374606936593 424.3119454589909Q466.7357252371551 420.3267429176213 464.39000475394386 418.5107012531997Q462.01906146983794 416.6946595887781 457.65551691504714 416.6946595887781L457.65551691504714 416.6946595887781Q452.93885314772996 416.6946595887781 450.3913502573607 418.8638204657261Q447.84384736699155 421.03298134267413 447.03671773835976 426.2288783269915Q446.2295881097279 431.3995525104141 446.2295881097279 440.30320122625886L446.2295881097279 440.30320122625886L446.2295881097279 473.345070398374Q446.2295881097279 486.78882327527276 448.75186819920236 491.32892743632675Q451.29937108957154 495.8690315973807 457.83207652131034 495.8690315973807L457.83207652131034 495.8690315973807Q462.7505226957855 495.8690315973807 465.0205747763125 493.5989795168537Q467.29062685683954 491.32892743632675 467.92119687920814 487.14194248779916Q468.55176690157674 482.9801803401663 468.55176690157674 477.7086149531648L468.55176690157674 477.7086149531648L468.55176690157674 469.1580854498464L486.18250472700305 469.1580854498464L486.18250472700305 476.4222521075328Q486.18250472700305 486.96538288153596 483.71067023931806 494.58266875174877Q481.26405855252784 502.2251774228563 475.00880393063125 506.2103799642259Q468.7283265078399 510.22080530649026 457.4789573087839 510.22080530649026Z " fill="#cc313d" transform="matrix(0.5070818971927767,0,0,0.5070818971927767,0,79.21786026668076)"/><path d="M702.2200066450873 510.3973649127535L702.2200066450873 510.3973649127535Q689.5077149941361 510.3973649127535 681.0580766943968 504.94923991948866Q672.6084383946574 499.5011149262239 668.2448938398667 489.8660049844315Q663.9065720859707 480.25611784353396 663.175110860023 467.5438261925828L663.175110860023 467.5438261925828L681.3355275042389 462.62538001810765Q681.8652063230286 470.44444829547837 683.7821391910292 477.7086149531648Q685.6990720590297 484.97278161085114 690.0373938129258 489.5885541745894Q694.4009383677165 494.2295495392223 702.2200066450873 494.2295495392223L702.2200066450873 494.2295495392223Q710.2156345287214 494.2295495392223 714.3017282736698 489.79033658174734Q718.3878220186185 485.3259008233776 718.3878220186185 476.97715372721717L718.3878220186185 476.97715372721717Q718.3878220186185 466.9889245728984 713.8477178575645 460.91022955726504Q709.3076136965104 454.83153454163164 702.3965662513505 448.65194832241923L702.3965662513505 448.65194832241923L677.7034441753957 426.8594483493601Q670.4392775177095 420.50330252388454 666.9837537951295 412.961685056356Q663.5282300725495 405.4200675888274 663.5282300725495 394.3472579960346L663.5282300725495 394.3472579960346Q663.5282300725495 378.1794426225035 672.7849980009206 369.2757939066587Q682.0669887301866 360.3973679917087 698.0330216965598 360.3973679917087L698.0330216965598 360.3973679917087Q706.7601108061414 360.3973679917087 713.393707441459 362.66742007223564Q720.0020812758821 364.93747215276267 724.4665170342519 369.65413592007985Q728.9057299917268 374.37079968739704 731.554124085675 381.5340751415045Q734.1772953787284 388.72257339650656 735.0853162109393 398.3324605374042L735.0853162109393 398.3324605374042L717.6563607926709 403.07434710561614Q717.1014591729864 395.8101804479298 715.4619771148281 389.7062626314016Q713.8477178575645 383.6275676157682 709.7616241126159 379.9198158842408Q705.6755303676673 376.18684135181866 698.0330216965598 376.18684135181866L698.0330216965598 376.18684135181866Q690.4157358263469 376.18684135181866 686.1530824751352 380.27293509676724Q681.8652063230286 384.3590288417158 681.8652063230286 392.3546567253498L681.8652063230286 392.3546567253498Q681.8652063230286 399.0639217633518 684.1352584035556 403.4274663181426Q686.4053104840826 407.7910108729333 691.500316264821 412.3311150339874L691.500316264821 412.3311150339874L716.3699979470389 434.12361500704645Q724.7439678440941 441.38778166473287 731.1001136695696 451.4516792217359Q737.4562594950452 461.54079957963364 737.4562594950452 475.3376716690588L737.4562594950452 475.3376716690588Q737.4562594950452 486.2339216555884 732.9161553339912 494.12865833564337Q728.3760511729372 502.0486178165931 720.4560916919875 506.2103799642259Q712.5613550119325 510.3973649127535 702.2200066450873 510.3973649127535ZM779.7548965955315 510.22080530649026L779.7548965955315 510.22080530649026Q771.5827091056343 510.22080530649026 766.588594528475 507.1184007964367Q761.5944799513155 504.0412190872779 759.3244278707886 498.4165344877499Q757.0543757902616 492.76662708732715 757.0543757902616 485.14934121711434L757.0543757902616 485.14934121711434L757.0543757902616 416.6946595887781L745.9815661974689 416.6946595887781L745.9815661974689 403.780585530669L757.0543757902616 403.780585530669L757.0543757902616 373.10965964265984L776.5011552801095 373.10965964265984L776.5011552801095 403.780585530669L793.3752090786935 403.780585530669L793.3752090786935 416.6946595887781L776.5011552801095 416.6946595887781L776.5011552801095 483.88820117237714Q776.5011552801095 490.0425645906948 778.4937565507943 492.6909586846429Q780.4863578214791 495.3141299776964 786.1110424210071 495.3141299776964L786.1110424210071 495.3141299776964Q787.5739648729023 495.3141299776964 789.4656749400082 495.1375703714331Q791.3826078080086 494.96101076516993 793.1986494724302 494.78445115890673L793.1986494724302 494.78445115890673L793.1986494724302 509.11100206712155Q789.5665661435871 509.6659036868059 786.4893844344283 509.94335449664806Q783.3869799243747 510.22080530649026 779.7548965955315 510.22080530649026ZM822.8102177228602 510.22080530649026L822.8102177228602 510.22080530649026Q816.6306315036478 510.22080530649026 813.1751077810678 506.94184119017353Q809.7195840584878 503.66287707385675 808.3575528101717 498.76965370027636Q806.9955215618554 493.8764303266959 806.9955215618554 488.7814245459576L806.9955215618554 488.7814245459576L806.9955215618554 403.780585530669L826.4423010517033 403.780585530669L826.4423010517033 482.9801803401663Q826.4423010517033 488.6048649396943 828.056560308967 491.7829378524321Q829.6960423671254 494.96101076516993 834.7910481478638 494.96101076516993L834.7910481478638 494.96101076516993Q838.0447894632858 494.96101076516993 841.6012043894448 493.0440778971693Q845.132396514709 491.1523678300635 848.4113606310258 488.4283053334311L848.4113606310258 488.4283053334311L848.4113606310258 403.780585530669L867.832917319979 403.780585530669L867.832917319979 508.7578828545951L848.4113606310258 508.7578828545951L848.4113606310258 498.4165344877499Q843.3163548502874 503.3097578613303 836.8845406221276 506.7652815839103Q830.427503593073 510.22080530649026 822.8102177228602 510.22080530649026ZM911.9728188857815 510.22080530649026L911.9728188857815 510.22080530649026Q898.705625615146 510.22080530649026 892.1729201834072 500.4848041611189Q885.6402147516684 490.77402581664234 885.6402147516684 467.5438261925828L885.6402147516684 467.5438261925828L885.6402147516684 447.18902587052406Q885.6402147516684 435.2081954455205 887.6328160223533 424.9425154813595Q889.625417293038 414.6768355171986 895.1744334898818 408.52247209888094Q900.6982268858309 402.3428858796686 911.4179172660972 402.3428858796686L911.4179172660972 402.3428858796686Q916.6894826530987 402.3428858796686 921.0530272078896 404.6886063628798Q925.4165717626803 407.0595496469858 928.8468726843656 410.51507336956576L928.8468726843656 410.51507336956576L928.8468726843656 361.6585080364459L948.2936521742134 361.6585080364459L948.2936521742134 508.7578828545951L928.8468726843656 508.7578828545951L928.8468726843656 502.0486178165931Q925.4165717626803 505.6807011454363 921.3304780177317 507.9507532259633Q917.2443842727831 510.22080530649026 911.9728188857815 510.22080530649026ZM916.866042259362 494.96101076516993L916.866042259362 494.96101076516993Q919.5901047559944 494.96101076516993 922.692509266048 493.9520987293801Q925.7696909752068 492.9684094944851 928.8468726843656 490.9505854229056L928.8468726843656 490.9505854229056L928.8468726843656 422.1427845820429Q926.3245925948911 420.3267429176213 923.2221880848375 418.96471166930513Q920.1450063756787 417.6026804209889 916.5129230468356 417.6026804209889L916.5129230468356 417.6026804209889Q909.7784352079387 417.6026804209889 907.4327147247276 424.0344946491487Q905.0617714406216 430.49153167820333 905.0617714406216 439.57174000031125L905.0617714406216 439.57174000031125L905.0617714406216 469.1580854498464Q905.0617714406216 476.4222521075328 905.8941238701482 482.32438751690296Q906.70125349878 488.22652292627316 909.2487563891492 491.60637824616896Q911.7962592795184 494.96101076516993 916.866042259362 494.96101076516993ZM996.9484351001753 510.22080530649026L996.9484351001753 510.22080530649026Q984.6144854626453 510.22080530649026 977.8799976237486 505.4032503355941Q971.1707325857466 500.5856953646979 968.5475612926932 491.2280362327478Q965.899167198745 481.8703771007976 965.899167198745 468.25006461763564L965.899167198745 468.25006461763564L965.899167198745 444.2884037676285Q965.899167198745 430.3149720719401 968.6232296953774 421.03298134267413Q971.3472921920098 411.77621341430296 978.1574484335908 407.0595496469858Q984.9676046751717 402.3428858796686 996.9484351001753 402.3428858796686L996.9484351001753 402.3428858796686Q1010.215628370811 402.3428858796686 1016.4708829927075 407.7910108729333Q1022.7513604154989 413.2391358661981 1024.7439616861839 423.5048158303591Q1026.7365629568685 433.7452729936253 1026.7365629568685 448.0970467027349L1026.7365629568685 448.0970467027349L1026.7365629568685 456.6475762060532L985.345946688593 456.6475762060532L985.345946688593 477.7086149531648Q985.345946688593 484.06476077864033 986.5061955297512 488.04996332000997Q987.6916671718042 492.0603886622743 990.3400612657523 493.9520987293801Q992.9632325588058 495.8690315973807 997.1502175073333 495.8690315973807L997.1502175073333 495.8690315973807Q1001.4885392612294 495.8690315973807 1003.7585913417564 493.77553912311697Q1006.0286434222834 491.68204664885315 1006.8609958518099 487.77251251016776Q1007.6681254804417 483.88820117237714 1007.6681254804417 478.61663578537554L1007.6681254804417 478.61663578537554L1007.6681254804417 472.2604899599L1026.5600033506053 472.2604899599L1026.5600033506053 476.2456925012696Q1026.5600033506053 492.0603886622743 1019.8507383126033 501.1405969843823Q1013.1162504737066 510.22080530649026 996.9484351001753 510.22080530649026ZM985.345946688593 440.47976083252206L985.345946688593 446.10444543205006L1007.6681254804417 446.10444543205006L1007.6681254804417 436.6711178974157Q1007.6681254804417 430.1131896647821 1006.9366642544941 425.67397670730713Q1006.2304258294413 421.2347637498321 1003.9603737489143 418.96471166930513Q1001.6903216683874 416.6946595887781 996.7718754939121 416.6946595887781L996.7718754939121 416.6946595887781Q992.0552117265948 416.6946595887781 989.6086000398049 418.8638204657261Q987.1619883530146 421.03298134267413 986.2539675208037 426.2288783269915Q985.345946688593 431.3995525104141 985.345946688593 440.47976083252206L985.345946688593 440.47976083252206ZM1063.7888574712479 508.7578828545951L1044.367300782295 508.7578828545951L1044.367300782295 403.780585530669L1063.7888574712479 403.780585530669L1063.7888574712479 414.14715669840893Q1069.0604228582497 409.2287105239338 1075.416568683725 405.79840960224857Q1081.7727145092008 402.3428858796686 1089.3900003794133 402.3428858796686L1089.3900003794133 402.3428858796686Q1095.746146204889 402.3428858796686 1099.10077872389 405.5966271950906Q1102.4806340437858 408.8755913114074 1103.842665292102 413.7688146849878Q1105.2046965404184 418.6872608594629 1105.2046965404184 423.75704383930656L1105.2046965404184 423.75704383930656L1105.2046965404184 508.7578828545951L1085.7579170505705 508.7578828545951L1085.7579170505705 429.40695123972927Q1085.7579170505705 423.75704383930656 1084.118434992412 420.67986213014774Q1082.5041757351482 417.6026804209889 1077.4091699544101 417.6026804209889L1077.4091699544101 417.6026804209889Q1074.1302058380934 417.6026804209889 1070.5990137128292 419.4943904880947Q1067.0678215875646 421.4113233560953 1063.7888574712479 424.1353858527277L1063.7888574712479 424.1353858527277L1063.7888574712479 508.7578828545951ZM1152.0434378019586 510.22080530649026L1152.0434378019586 510.22080530649026Q1143.8712503120614 510.22080530649026 1138.877135734902 507.1184007964367Q1133.8830211577429 504.0412190872779 1131.6129690772154 498.4165344877499Q1129.3429169966885 492.76662708732715 1129.3429169966885 485.14934121711434L1129.3429169966885 485.14934121711434L1129.3429169966885 416.6946595887781L1118.270107403896 416.6946595887781L1118.270107403896 403.780585530669L1129.3429169966885 403.780585530669L1129.3429169966885 373.10965964265984L1148.7896964865367 373.10965964265984L1148.7896964865367 403.780585530669L1165.6637502851204 403.780585530669L1165.6637502851204 416.6946595887781L1148.7896964865367 416.6946595887781L1148.7896964865367 483.88820117237714Q1148.7896964865367 490.0425645906948 1150.7822977572214 492.6909586846429Q1152.774899027906 495.3141299776964 1158.3995836274344 495.3141299776964L1158.3995836274344 495.3141299776964Q1159.8625060793293 495.3141299776964 1161.7542161464353 495.1375703714331Q1163.6711490144357 494.96101076516993 1165.4871906788576 494.78445115890673L1165.4871906788576 494.78445115890673L1165.4871906788576 509.11100206712155Q1161.8551073500144 509.6659036868059 1158.7779256408553 509.94335449664806Q1155.6755211308018 510.22080530649026 1152.0434378019586 510.22080530649026ZM1250.2862472869879 510.22080530649026L1250.2862472869879 510.22080530649026Q1237.3973960297735 510.22080530649026 1230.7637993944559 505.02490832217296Q1224.1554255600327 499.8542341387503 1221.8853734795057 490.42090660411594Q1219.6153213989787 480.9623562685868 1219.6153213989787 468.45184702479355L1219.6153213989787 468.45184702479355L1219.6153213989787 444.2884037676285Q1219.6153213989787 431.0212104969929 1221.9610418821899 421.6887741659375Q1224.331985166296 412.3311150339874 1230.965581801614 407.337000456828Q1237.5739556360368 402.3428858796686 1250.2862472869879 402.3428858796686L1250.2862472869879 402.3428858796686Q1261.7373988932018 402.3428858796686 1267.9926535150985 406.050637611196Q1274.27313093789 409.78361214361814 1276.6188514211012 417.1486700048835Q1278.9897947052073 424.4885050652542 1278.9897947052073 435.3847550517837L1278.9897947052073 435.3847550517837L1278.9897947052073 441.56434127099607L1261.3842796806757 441.56434127099607L1261.3842796806757 435.2081954455205Q1261.3842796806757 428.29714800036055 1260.4762588484646 424.3119454589909Q1259.5682380162539 420.3267429176213 1257.1972947321478 418.5107012531997Q1254.8263514480418 416.6946595887781 1250.488029694146 416.6946595887781L1250.488029694146 416.6946595887781Q1245.746143125934 416.6946595887781 1243.2238630364595 418.8638204657261Q1240.6763601460902 421.03298134267413 1239.8440077165637 426.2288783269915Q1239.036878087932 431.3995525104141 1239.036878087932 440.30320122625886L1239.036878087932 440.30320122625886L1239.036878087932 473.345070398374Q1239.036878087932 486.78882327527276 1241.584380978301 491.32892743632675Q1244.1318838686702 495.8690315973807 1250.6645893004093 495.8690315973807L1250.6645893004093 495.8690315973807Q1255.5578126739897 495.8690315973807 1257.8278647545167 493.5989795168537Q1260.0979168350436 491.32892743632675 1260.728486857412 487.14194248779916Q1261.3842796806757 482.9801803401663 1261.3842796806757 477.7086149531648L1261.3842796806757 477.7086149531648L1261.3842796806757 469.1580854498464L1278.9897947052073 469.1580854498464L1278.9897947052073 476.4222521075328Q1278.9897947052073 486.96538288153596 1276.543183018417 494.58266875174877Q1274.0965713316268 502.2251774228563 1267.8160939088352 506.2103799642259Q1261.560839286939 510.22080530649026 1250.2862472869879 510.22080530649026ZM1325.1222975416945 510.22080530649026L1325.1222975416945 510.22080530649026Q1313.4945863292173 510.22080530649026 1306.7853212912155 505.4789187382783Q1300.0508334523188 500.7622549709611 1297.251102553002 492.0603886622743Q1294.426148852791 483.3332995526928 1294.426148852791 471.52902873395243L1294.426148852791 471.52902873395243L1294.426148852791 441.0094396513117Q1294.426148852791 429.20516883257136 1297.251102553002 420.50330252388454Q1300.0508334523188 411.77621341430296 1306.7853212912155 407.0595496469858Q1313.4945863292173 402.3428858796686 1325.1222975416945 402.3428858796686L1325.1222975416945 402.3428858796686Q1336.7500087541716 402.3428858796686 1343.3583825885948 407.0595496469858Q1349.9919792239125 411.77621341430296 1352.816932924124 420.50330252388454Q1355.6166638234404 429.20516883257136 1355.6166638234404 441.0094396513117L1355.6166638234404 441.0094396513117L1355.6166638234404 471.52902873395243Q1355.6166638234404 483.3332995526928 1352.816932924124 492.0603886622743Q1349.9919792239125 500.7622549709611 1343.3583825885948 505.4789187382783Q1336.7500087541716 510.22080530649026 1325.1222975416945 510.22080530649026ZM1325.1222975416945 495.8690315973807L1325.1222975416945 495.8690315973807Q1330.7469821412228 495.8690315973807 1333.0170342217498 492.59006748106395Q1335.2870863022767 489.33632616564194 1335.7410967183819 483.9638695750614Q1336.1951071344874 478.61663578537554 1336.1951071344874 472.79016877868963L1336.1951071344874 472.79016877868963L1336.1951071344874 439.9248592128377Q1336.1951071344874 433.94705540078326 1335.7410967183819 428.6754900137817Q1335.2870863022767 423.4039246267801 1333.0170342217498 420.04929210777914Q1330.7469821412228 416.6946595887781 1325.1222975416945 416.6946595887781L1325.1222975416945 416.6946595887781Q1319.4976129421666 416.6946595887781 1317.1266696580606 420.04929210777914Q1314.7557263739545 423.4039246267801 1314.3017159578494 428.6754900137817Q1313.8477055417438 433.94705540078326 1313.8477055417438 439.9248592128377L1313.8477055417438 439.9248592128377L1313.8477055417438 472.79016877868963Q1313.8477055417438 478.61663578537554 1314.3017159578494 483.9638695750614Q1314.7557263739545 489.33632616564194 1317.1266696580606 492.59006748106395Q1319.4976129421666 495.8690315973807 1325.1222975416945 495.8690315973807ZM1392.8455179440834 508.7578828545951L1373.42396125513 508.7578828545951L1373.42396125513 403.780585530669L1392.8455179440834 403.780585530669L1392.8455179440834 414.14715669840893Q1398.1170833310848 409.2287105239338 1404.4732291565606 405.79840960224857Q1410.829374982036 402.3428858796686 1418.4718836531433 402.3428858796686L1418.4718836531433 402.3428858796686Q1424.828029478619 402.3428858796686 1428.18266199762 405.5966271950906Q1431.5372945166214 408.8755913114074 1432.8993257649372 413.7688146849878Q1434.2613570132535 418.6872608594629 1434.2613570132535 423.75704383930656L1434.2613570132535 423.75704383930656L1434.2613570132535 508.7578828545951L1414.8398003243005 508.7578828545951L1414.8398003243005 429.40695123972927Q1414.8398003243005 423.75704383930656 1413.200318266142 420.67986213014774Q1411.5608362079834 417.6026804209889 1406.4658304272452 417.6026804209889L1406.4658304272452 417.6026804209889Q1403.212089111823 417.6026804209889 1399.6556741856643 419.4943904880947Q1396.1244820604002 421.4113233560953 1392.8455179440834 424.1353858527277L1392.8455179440834 424.1353858527277L1392.8455179440834 508.7578828545951ZM1472.57479157237 508.7578828545951L1453.153234883417 508.7578828545951L1453.153234883417 403.780585530669L1472.57479157237 403.780585530669L1472.57479157237 414.14715669840893Q1477.8463569593719 409.2287105239338 1484.2025027848476 405.79840960224857Q1490.558648610323 402.3428858796686 1498.175934480536 402.3428858796686L1498.175934480536 402.3428858796686Q1504.5320803060113 402.3428858796686 1507.911935625907 405.5966271950906Q1511.266568144908 408.8755913114074 1512.6285993932242 413.7688146849878Q1513.9906306415405 418.6872608594629 1513.9906306415405 423.75704383930656L1513.9906306415405 423.75704383930656L1513.9906306415405 508.7578828545951L1494.5438511516927 508.7578828545951L1494.5438511516927 429.40695123972927Q1494.5438511516927 423.75704383930656 1492.929591894429 420.67986213014774Q1491.2901098362704 417.6026804209889 1486.1951040555323 417.6026804209889L1486.1951040555323 417.6026804209889Q1482.94136274011 417.6026804209889 1479.3849478139514 419.4943904880947Q1475.8537556886872 421.4113233560953 1472.57479157237 424.1353858527277L1472.57479157237 424.1353858527277L1472.57479157237 508.7578828545951ZM1561.9391751424496 510.22080530649026L1561.9391751424496 510.22080530649026Q1549.580002704025 510.22080530649026 1542.8707376660227 505.4032503355941Q1536.136249827126 500.5856953646979 1533.5130785340725 491.2280362327478Q1530.8646844401246 481.8703771007976 1530.8646844401246 468.25006461763564L1530.8646844401246 468.25006461763564L1530.8646844401246 444.2884037676285Q1530.8646844401246 430.3149720719401 1533.5887469367567 421.03298134267413Q1536.3128094333892 411.77621341430296 1543.1229656749701 407.0595496469858Q1549.9331219165515 402.3428858796686 1561.9391751424496 402.3428858796686L1561.9391751424496 402.3428858796686Q1575.1811456121904 402.3428858796686 1581.4616230349816 407.7910108729333Q1587.7168776568783 413.2391358661981 1589.709478927563 423.5048158303591Q1591.702080198248 433.7452729936253 1591.702080198248 448.0970467027349L1591.702080198248 448.0970467027349L1591.702080198248 456.6475762060532L1550.3114639299724 456.6475762060532L1550.3114639299724 477.7086149531648Q1550.3114639299724 484.06476077864033 1551.4969355720254 488.04996332000997Q1552.6571844131836 492.0603886622743 1555.305578507132 493.9520987293801Q1557.9287498001854 495.8690315973807 1562.1157347487128 495.8690315973807L1562.1157347487128 495.8690315973807Q1566.4792793035035 495.8690315973807 1568.7493313840305 493.77553912311697Q1571.0193834645574 491.68204664885315 1571.8265130931895 487.77251251016776Q1572.6336427218212 483.88820117237714 1572.6336427218212 478.61663578537554L1572.6336427218212 478.61663578537554L1572.6336427218212 472.2604899599L1591.5255205919848 472.2604899599L1591.5255205919848 476.2456925012696Q1591.5255205919848 492.0603886622743 1584.8162555539825 501.1405969843823Q1578.0817677150858 510.22080530649026 1561.9391751424496 510.22080530649026ZM1550.3114639299724 440.47976083252206L1550.3114639299724 446.10444543205006L1572.6336427218212 446.10444543205006L1572.6336427218212 436.6711178974157Q1572.6336427218212 430.1131896647821 1571.9274042967681 425.67397670730713Q1571.1959430708207 421.2347637498321 1568.9258909902937 418.96471166930513Q1566.6558389097668 416.6946595887781 1561.7373927352915 416.6946595887781L1561.7373927352915 416.6946595887781Q1557.0207289679743 416.6946595887781 1554.5741172811845 418.8638204657261Q1552.1275055943938 421.03298134267413 1551.2194847621831 426.2288783269915Q1550.3114639299724 431.3995525104141 1550.3114639299724 440.47976083252206L1550.3114639299724 440.47976083252206ZM1638.0111426409985 510.22080530649026L1638.0111426409985 510.22080530649026Q1625.1222913837842 510.22080530649026 1618.4886947484665 505.02490832217296Q1611.8803209140433 499.8542341387503 1609.6102688335163 490.42090660411594Q1607.3402167529894 480.9623562685868 1607.3402167529894 468.45184702479355L1607.3402167529894 468.45184702479355L1607.3402167529894 444.2884037676285Q1607.3402167529894 431.0212104969929 1609.6859372362005 421.6887741659375Q1612.0568805203065 412.3311150339874 1618.6904771556246 407.337000456828Q1625.2988509900474 402.3428858796686 1638.0111426409985 402.3428858796686L1638.0111426409985 402.3428858796686Q1649.4622942472124 402.3428858796686 1655.7175488691091 406.050637611196Q1661.9980262919007 409.78361214361814 1664.3437467751119 417.1486700048835Q1666.714690059218 424.4885050652542 1666.714690059218 435.3847550517837L1666.714690059218 435.3847550517837L1666.714690059218 441.56434127099607L1649.109175034686 441.56434127099607L1649.109175034686 435.2081954455205Q1649.109175034686 428.29714800036055 1648.2011542024752 424.3119454589909Q1647.2931333702645 420.3267429176213 1644.9221900861585 418.5107012531997Q1642.5512468020524 416.6946595887781 1638.2129250481566 416.6946595887781L1638.2129250481566 416.6946595887781Q1633.4710384799446 416.6946595887781 1630.9487583904702 418.8638204657261Q1628.401255500101 421.03298134267413 1627.5689030705744 426.2288783269915Q1626.7617734419428 431.3995525104141 1626.7617734419428 440.30320122625886L1626.7617734419428 440.30320122625886L1626.7617734419428 473.345070398374Q1626.7617734419428 486.78882327527276 1629.309276332312 491.32892743632675Q1631.8567792226809 495.8690315973807 1638.38948465442 495.8690315973807L1638.38948465442 495.8690315973807Q1643.2827080280003 495.8690315973807 1645.5527601085273 493.5989795168537Q1647.8228121890543 491.32892743632675 1648.4533822114226 487.14194248779916Q1649.109175034686 482.9801803401663 1649.109175034686 477.7086149531648L1649.109175034686 477.7086149531648L1649.109175034686 469.1580854498464L1666.714690059218 469.1580854498464L1666.714690059218 476.4222521075328Q1666.714690059218 486.96538288153596 1664.2680783724272 494.58266875174877Q1661.8214666856375 502.2251774228563 1655.5409892628459 506.2103799642259Q1649.2857346409492 510.22080530649026 1638.0111426409985 510.22080530649026ZM1711.9391720634944 510.22080530649026L1711.9391720634944 510.22080530649026Q1703.7669845735973 510.22080530649026 1698.7728699964377 507.1184007964367Q1693.7787554192787 504.0412190872779 1691.5087033387513 498.4165344877499Q1689.2386512582248 492.76662708732715 1689.2386512582248 485.14934121711434L1689.2386512582248 485.14934121711434L1689.2386512582248 416.6946595887781L1678.1658416654318 416.6946595887781L1678.1658416654318 403.780585530669L1689.2386512582248 403.780585530669L1689.2386512582248 373.10965964265984L1708.6602079471777 373.10965964265984L1708.6602079471777 403.780585530669L1725.5594845466567 403.780585530669L1725.5594845466567 416.6946595887781L1708.6602079471777 416.6946595887781L1708.6602079471777 483.88820117237714Q1708.6602079471777 490.0425645906948 1710.6528092178628 492.6909586846429Q1712.6706332894419 495.3141299776964 1718.2953178889702 495.3141299776964L1718.2953178889702 495.3141299776964Q1719.7330175399702 495.3141299776964 1721.6499504079711 495.1375703714331Q1723.5668832759716 494.96101076516993 1725.382924940393 494.78445115890673L1725.382924940393 494.78445115890673L1725.382924940393 509.11100206712155Q1721.7508416115502 509.6659036868059 1718.6484371014963 509.94335449664806Q1715.5712553923377 510.22080530649026 1711.9391720634944 510.22080530649026Z " fill="#f7c5cc" transform="matrix(0.5070818971927767,0,0,0.5070818971927767,0,79.21786026668076)"/></g></svg>